<svg width="44" height="44" viewBox="0 0 44 44" fill="none" xmlns="http://www.w3.org/2000/svg">
<path fill-rule="evenodd" clip-rule="evenodd" d="M40.3333 22C40.3333 32.1252 32.1252 40.3334 22 40.3334C11.8747 40.3334 3.66663 32.1252 3.66663 22C3.66663 11.8748 11.8747 3.66669 22 3.66669C32.1252 3.66669 40.3333 11.8748 40.3333 22ZM22 13.2917C22.7593 13.2917 23.375 13.9073 23.375 14.6667V20.625H29.3333C30.0927 20.625 30.7083 21.2406 30.7083 22C30.7083 22.7594 30.0927 23.375 29.3333 23.375H23.375V29.3334C23.375 30.0927 22.7593 30.7084 22 30.7084C21.2406 30.7084 20.625 30.0927 20.625 29.3334V23.375H14.6666C13.9072 23.375 13.2916 22.7594 13.2916 22C13.2916 21.2406 13.9072 20.625 14.6666 20.625H20.625V14.6667C20.625 13.9073 21.2406 13.2917 22 13.2917Z" fill="#7D57F1"/>
</svg>
